HIERARCHY
ROOT Hips
{
	OFFSET 0.000000 83.214638 0.000000
	CHANNELS 6 Xposition Yposition Zposition Xrotation Yrotation Zrotation
	JOINT Pelvis
	{
		OFFSET 0.000000 0.000000 0.000000
		CHANNELS 3 Xrotation Yrotation Zrotation
		JOINT LeftUpLeg
		{
			OFFSET 8.479700 -4.795502 -0.379100
			CHANNELS 3 Xrotation Yrotation Zrotation
			JOINT LeftLeg
			{
				OFFSET 0.024144 -32.555107 0.112900
				CHANNELS 3 Xrotation Yrotation Zrotation
				JOINT LeftFoot
				{
					OFFSET -0.024144 -32.638630 -3.012600
					CHANNELS 3 Xrotation Yrotation Zrotation
					JOINT LeftToeBase
					{
						OFFSET 0.970200 -13.225400 11.864200
						CHANNELS 3 Xrotation Yrotation Zrotation
						End Site
						{
							OFFSET 0.000000 12.319262 0.000000
						}
					}
					JOINT LFootTongue
					{
						OFFSET 1.142400 -1.059800 6.665200
						CHANNELS 3 Xrotation Yrotation Zrotation
						End Site
						{
							OFFSET 0.000000 12.319262 0.000000
						}
					}
				}
				JOINT LeftPantLeg
				{
					OFFSET 0.918482 -16.533964 -2.284700
					CHANNELS 3 Xrotation Yrotation Zrotation
					End Site
					{
						OFFSET 0.350399 24.744368 0.000000
					}
				}
			}
		}
		JOINT RightUpLeg
		{
			OFFSET -8.479700 -4.795502 -0.379100
			CHANNELS 3 Xrotation Yrotation Zrotation
			JOINT RightLeg
			{
				OFFSET -0.023144 -32.555092 0.112900
				CHANNELS 3 Xrotation Yrotation Zrotation
				JOINT RightFoot
				{
					OFFSET 0.023144 -32.638641 -3.012700
					CHANNELS 3 Xrotation Yrotation Zrotation
					JOINT RightToeBase
					{
						OFFSET -0.970200 -13.225400 11.864200
						CHANNELS 3 Xrotation Yrotation Zrotation
						End Site
						{
							OFFSET 0.000000 12.319244 0.000000
						}
					}
					JOINT RFootTongue
					{
						OFFSET -1.142200 -1.059800 6.665200
						CHANNELS 3 Xrotation Yrotation Zrotation
						End Site
						{
							OFFSET 0.000000 12.319243 0.000000
						}
					}
				}
				JOINT RightPantLeg
				{
					OFFSET -0.919482 -16.533978 -2.284800
					CHANNELS 3 Xrotation Yrotation Zrotation
					End Site
					{
						OFFSET -0.350400 24.744419 0.000000
					}
				}
			}
		}
	}
	JOINT Spine
	{
		OFFSET 0.000000 7.722000 1.166200
		CHANNELS 3 Xrotation Yrotation Zrotation
		JOINT Spine1
		{
			OFFSET 0.000000 12.024101 0.248800
			CHANNELS 3 Xrotation Yrotation Zrotation
			JOINT Spine2
			{
				OFFSET 0.000000 11.502998 -0.491200
				CHANNELS 3 Xrotation Yrotation Zrotation
				JOINT Neck
				{
					OFFSET 0.000000 18.430702 -3.123100
					CHANNELS 3 Xrotation Yrotation Zrotation
					JOINT Head
					{
						OFFSET 0.000000 9.051102 1.034000
						CHANNELS 3 Xrotation Yrotation Zrotation
						JOINT HairB
						{
							OFFSET 0.208400 24.786102 24.822300
							CHANNELS 3 Xrotation Yrotation Zrotation
							End Site
							{
								OFFSET 0.000000 32.263779 0.000000
							}
						}
						JOINT HairA
						{
							OFFSET -7.081100 24.428299 23.196600
							CHANNELS 3 Xrotation Yrotation Zrotation
							End Site
							{
								OFFSET 0.000000 32.263779 0.000000
							}
						}
						JOINT Hat
						{
							OFFSET 16.728800 15.048294 -15.439601
							CHANNELS 3 Xrotation Yrotation Zrotation
							End Site
							{
								OFFSET 0.000000 32.263779 0.000000
							}
						}
					}
				}
				JOINT LeftShoulder
				{
					OFFSET 6.197800 13.665199 -4.064700
					CHANNELS 3 Xrotation Yrotation Zrotation
					JOINT LeftArm
					{
						OFFSET 7.778100 -0.187103 -1.709300
						CHANNELS 3 Xrotation Yrotation Zrotation
						JOINT LeftForeArm
						{
							OFFSET 22.049376 0.000000 0.000000
							CHANNELS 3 Xrotation Yrotation Zrotation
							JOINT LeftHand
							{
								OFFSET 23.009392 0.000000 0.000000
								CHANNELS 3 Xrotation Yrotation Zrotation
								JOINT LeftHandThumb1
								{
									OFFSET 3.507191 -2.063065 3.133727
									CHANNELS 3 Xrotation Yrotation Zrotation
									JOINT LeftHandThumb2
									{
										OFFSET 3.101337 -1.790558 1.790558
										CHANNELS 3 Xrotation Yrotation Zrotation
										JOINT LeftHandThumb3
										{
											OFFSET 3.058640 -1.765907 1.765906
											CHANNELS 3 Xrotation Yrotation Zrotation
											End Site
											{
												OFFSET -0.415260 3.926476 -0.049563
											}
										}
									}
								}
								JOINT LeftHandIndex1
								{
									OFFSET 11.334419 -0.901459 3.706815
									CHANNELS 3 Xrotation Yrotation Zrotation
									JOINT LeftHandIndex2
									{
										OFFSET 3.283112 0.000000 0.000000
										CHANNELS 3 Xrotation Yrotation Zrotation
										JOINT LeftHandIndex3
										{
											OFFSET 3.323853 0.000000 0.000000
											CHANNELS 3 Xrotation Yrotation Zrotation
											End Site
											{
												OFFSET -1.135597 3.097809 0.402452
											}
										}
									}
								}
								JOINT LeftHandMiddle1
								{
									OFFSET 11.335861 0.000000 0.000000
									CHANNELS 3 Xrotation Yrotation Zrotation
									JOINT LeftHandMiddle2
									{
										OFFSET 3.410492 0.000000 0.000000
										CHANNELS 3 Xrotation Yrotation Zrotation
										JOINT LeftHandMiddle3
										{
											OFFSET 3.312172 0.000000 0.000000
											CHANNELS 3 Xrotation Yrotation Zrotation
											End Site
											{
												OFFSET -1.150200 3.080154 0.400270
											}
										}
									}
								}
								JOINT LeftHandRing1
								{
									OFFSET 11.514786 -0.013176 -3.003090
									CHANNELS 3 Xrotation Yrotation Zrotation
									JOINT LeftHandRing2
									{
										OFFSET 3.053307 0.000000 0.000000
										CHANNELS 3 Xrotation Yrotation Zrotation
										JOINT LeftHandRing3
										{
											OFFSET 3.295807 0.000000 0.000000
											CHANNELS 3 Xrotation Yrotation Zrotation
											End Site
											{
												OFFSET -1.281006 3.013344 0.375733
											}
										}
									}
								}
								JOINT LeftHandPinky1
								{
									OFFSET 10.518692 -0.960396 -5.730441
									CHANNELS 3 Xrotation Yrotation Zrotation
									JOINT LeftHandPinky2
									{
										OFFSET 2.861649 0.000000 0.000000
										CHANNELS 3 Xrotation Yrotation Zrotation
										JOINT LeftHandPinky3
										{
											OFFSET 2.863380 0.000000 0.000000
											CHANNELS 3 Xrotation Yrotation Zrotation
											End Site
											{
												OFFSET -0.843597 2.711159 0.369971
											}
										}
									}
								}
							}
							JOINT LSleeve
							{
								OFFSET 6.676277 -0.344902 -1.011730
								CHANNELS 3 Xrotation Yrotation Zrotation
								End Site
								{
									OFFSET 0.000000 14.885353 0.000000
								}
							}
						}
					}
				}
				JOINT RightShoulder
				{
					OFFSET -6.197800 13.665199 -4.064700
					CHANNELS 3 Xrotation Yrotation Zrotation
					JOINT RightArm
					{
						OFFSET -7.778100 -0.187103 -1.709300
						CHANNELS 3 Xrotation Yrotation Zrotation
						JOINT RightForeArm
						{
							OFFSET -22.049376 0.000000 0.000000
							CHANNELS 3 Xrotation Yrotation Zrotation
							JOINT RightHand
							{
								OFFSET -23.009392 0.000000 0.000000
								CHANNELS 3 Xrotation Yrotation Zrotation
								JOINT RightHandThumb1
								{
									OFFSET -3.507191 -2.063065 3.133727
									CHANNELS 3 Xrotation Yrotation Zrotation
									JOINT RightHandThumb2
									{
										OFFSET -3.101337 -1.790558 1.790558
										CHANNELS 3 Xrotation Yrotation Zrotation
										JOINT RightHandThumb3
										{
											OFFSET -3.058640 -1.765907 1.765906
											CHANNELS 3 Xrotation Yrotation Zrotation
											End Site
											{
												OFFSET 0.415260 3.926476 -0.049563
											}
										}
									}
								}
								JOINT RightHandIndex1
								{
									OFFSET -11.334419 -0.901459 3.706815
									CHANNELS 3 Xrotation Yrotation Zrotation
									JOINT RightHandIndex2
									{
										OFFSET -3.283112 0.000000 0.000000
										CHANNELS 3 Xrotation Yrotation Zrotation
										JOINT RightHandIndex3
										{
											OFFSET -3.323853 0.000000 0.000000
											CHANNELS 3 Xrotation Yrotation Zrotation
											End Site
											{
												OFFSET 1.135597 3.097809 0.402452
											}
										}
									}
								}
								JOINT RightHandMiddle1
								{
									OFFSET -11.335861 0.000000 0.000000
									CHANNELS 3 Xrotation Yrotation Zrotation
									JOINT RightHandMiddle2
									{
										OFFSET -3.410492 0.000000 0.000000
										CHANNELS 3 Xrotation Yrotation Zrotation
										JOINT RightHandMiddle3
										{
											OFFSET -3.312172 0.000000 0.000000
											CHANNELS 3 Xrotation Yrotation Zrotation
											End Site
											{
												OFFSET 1.150200 3.080154 0.400270
											}
										}
									}
								}
								JOINT RightHandRing1
								{
									OFFSET -11.514786 -0.013176 -3.003090
									CHANNELS 3 Xrotation Yrotation Zrotation
									JOINT RightHandRing2
									{
										OFFSET -3.053307 0.000000 0.000000
										CHANNELS 3 Xrotation Yrotation Zrotation
										JOINT RightHandRing3
										{
											OFFSET -3.295807 0.000000 0.000000
											CHANNELS 3 Xrotation Yrotation Zrotation
											End Site
											{
												OFFSET 1.281006 3.013344 0.375733
											}
										}
									}
								}
								JOINT RightHandPinky1
								{
									OFFSET -10.518692 -0.960396 -5.730441
									CHANNELS 3 Xrotation Yrotation Zrotation
									JOINT RightHandPinky2
									{
										OFFSET -2.861649 0.000000 0.000000
										CHANNELS 3 Xrotation Yrotation Zrotation
										JOINT RightHandPinky3
										{
											OFFSET -2.863380 0.000000 0.000000
											CHANNELS 3 Xrotation Yrotation Zrotation
											End Site
											{
												OFFSET 0.843597 2.711159 0.369971
											}
										}
									}
								}
							}
							JOINT RSleeve
							{
								OFFSET -6.676277 -0.344902 -1.011730
								CHANNELS 3 Xrotation Yrotation Zrotation
								End Site
								{
									OFFSET 0.000000 14.885353 0.000000
								}
							}
						}
					}
				}
				JOINT Backpack
				{
					OFFSET 0.000000 -2.471497 36.677502
					CHANNELS 3 Xrotation Yrotation Zrotation
					End Site
					{
						OFFSET 0.000000 20.427315 0.000000
					}
				}
				JOINT Hood
				{
					OFFSET 0.000000 18.754097 -10.431000
					CHANNELS 3 Xrotation Yrotation Zrotation
					JOINT Hood1
					{
						OFFSET 0.000000 -5.011002 -7.685901
						CHANNELS 3 Xrotation Yrotation Zrotation
						End Site
						{
							OFFSET 0.000000 9.175140 0.000000
						}
					}
				}
				JOINT LHoodieString
				{
					OFFSET 5.250500 16.397697 3.089900
					CHANNELS 3 Xrotation Yrotation Zrotation
					JOINT LHoodieString1
					{
						OFFSET 0.257700 -6.364304 3.694600
						CHANNELS 3 Xrotation Yrotation Zrotation
						JOINT LHoodieString2
						{
							OFFSET 0.000000 -9.643799 2.679100
							CHANNELS 3 Xrotation Yrotation Zrotation
							End Site
							{
								OFFSET 0.000000 10.009018 0.000000
							}
						}
					}
				}
				JOINT RHoodieString
				{
					OFFSET -5.250500 16.397697 3.089900
					CHANNELS 3 Xrotation Yrotation Zrotation
					JOINT RHoodieString1
					{
						OFFSET -0.257700 -6.364304 3.694600
						CHANNELS 3 Xrotation Yrotation Zrotation
						JOINT RHoodieString2
						{
							OFFSET 0.000000 -9.643799 2.679100
							CHANNELS 3 Xrotation Yrotation Zrotation
							End Site
							{
								OFFSET 0.000000 10.009018 0.000000
							}
						}
					}
				}
			}
			JOINT LBackpack_Strap
			{
				OFFSET 15.223200 -7.719803 -6.610900
				CHANNELS 3 Xrotation Yrotation Zrotation
				End Site
				{
					OFFSET 0.000000 16.040596 0.000000
				}
			}
			JOINT RBackpack_Strap
			{
				OFFSET -15.223000 -7.719803 -6.610900
				CHANNELS 3 Xrotation Yrotation Zrotation
				End Site
				{
					OFFSET 0.000000 16.040596 0.000000
				}
			}
		}
	}
	JOINT BoyFacialAnim_Joint
	{
		OFFSET 1.000000 -82.208099 -1.550900
		CHANNELS 3 Xrotation Yrotation Zrotation
		End Site
		{
			OFFSET 0.000000 30.012791 0.000000
		}
	}
}
MOTION
Frames: 4
Frame Time: 0.033333
-0.215900 77.943474 -0.432334 -1.827927 11.388932 -2.894007 0.000000 -0.000000 -0.000000 0.188353 -2.143816 14.230674 33.287924 0.432752 -1.107985 -22.912047 -1.593231 -10.194737 -0.000000 0.000000 0.000000 -0.000000 0.000000 0.000000 -0.000004 -0.000001 0.000000 -29.209748 -5.191938 -6.503373 26.650901 0.271506 1.084728 5.809709 -12.704112 5.202111 0.000000 -0.000000 -0.000000 0.000000 -0.000000 -0.000000 0.000000 -0.000000 -0.000000 6.486722 0.802976 1.057380 12.958584 1.666419 2.091533 12.958586 1.666418 2.091534 -15.134630 -7.930940 -1.626154 -18.140653 -5.475793 -0.097420 -0.000000 0.000000 -0.000000 -0.000000 0.000000 -0.000000 -0.000000 0.000000 -0.000000 3.000441 1.006133 12.362107 0.507413 0.328092 -81.031588 4.673367 -66.568410 4.289241 7.232680 -22.465744 -4.106800 1.094404 9.692890 16.924095 6.617401 15.968400 -9.748843 0.000000 -0.000000 -0.000000 7.419839 13.839473 -81.378658 2.093360 -4.239774 -115.962556 -0.000001 -0.000003 -0.000004 -1.251471 8.686803 -82.842108 -4.388381 -2.513015 -117.704240 -0.000001 -0.000000 0.000000 -6.773475 -1.906347 -85.805952 -10.279438 2.611244 -104.549678 -0.000002 -0.000001 -0.000001 -14.196129 -1.498327 -78.843435 -11.721828 -1.028528 -105.383214 0.000001 -0.000002 -0.000002 0.000000 -0.000001 0.000000 8.228150 -14.755726 -7.900236 -3.258604 17.428291 68.198742 1.663966 73.431473 -1.642928 -6.807408 13.911125 7.693876 20.889982 -15.566570 -16.787567 -8.208237 -4.310776 0.268589 -0.000000 0.000001 0.000000 9.128260 -12.650009 66.647989 -1.115874 5.239758 125.016449 0.000000 -0.000000 -0.000002 0.129285 -8.309473 66.870571 -6.256252 2.643836 127.739441 0.000001 0.000001 -0.000000 -6.024591 -0.258355 69.615487 -8.192072 -4.659863 114.564457 0.000001 0.000001 0.000002 -14.471982 -2.795427 62.649657 -6.361309 -2.984405 115.428421 -0.000000 -0.000000 0.000000 0.000003 0.000001 -0.000002 -0.000001 0.000000 -0.000000 -0.000001 0.000000 -0.000000 -0.000001 0.000000 -0.000000 -0.000001 0.000000 -0.000000 -0.000001 0.000000 -0.000000 -0.000003 0.000000 -0.000000 -0.000001 0.000000 -0.000000 -0.000001 0.000000 -0.000000 -0.000003 0.000000 -0.000000 0.000001 0.000000 -0.000000 0.000001 0.000000 -0.000000 0.000000 -0.000000 -0.000000 
-0.184639 77.909584 -0.507780 -0.884811 11.071021 -2.684023 -0.000000 0.000000 -0.000000 -0.750144 -2.625099 13.500433 33.396292 0.429316 -1.111460 -22.867004 -0.803633 -9.990558 0.000000 0.000001 -0.000000 0.000000 0.000001 -0.000000 -0.000002 -0.000000 0.000000 -30.445759 -4.661149 -6.776970 26.840938 0.265094 1.091336 5.920700 -12.732483 5.268777 -0.000000 -0.000000 -0.000000 -0.000000 -0.000000 -0.000000 0.000000 0.000000 0.000000 6.278446 0.730368 0.984329 12.543980 1.511763 1.965229 12.543990 1.511766 1.965226 -15.374377 -7.969367 -1.550475 -18.035705 -5.662983 -0.008591 0.000000 -0.000000 -0.000000 0.000000 -0.000000 -0.000000 0.000000 -0.000000 -0.000000 2.833793 0.065151 10.852084 3.813838 1.562674 -79.650121 4.518337 -68.154646 4.194837 8.161144 -23.019577 -3.616872 1.094434 9.692881 16.924111 6.617408 15.968403 -9.748846 -0.000000 -0.000000 0.000002 7.419844 13.839455 -81.378637 2.093359 -4.239781 -115.962556 -0.000002 -0.000003 -0.000002 -1.251448 8.686798 -82.842101 -4.394138 -2.509995 -117.783115 -0.000001 -0.000001 -0.000000 -6.773453 -1.906339 -85.805939 -10.279432 2.611239 -104.549692 -0.000000 -0.000004 -0.000001 -14.196116 -1.498338 -78.843414 -11.721843 -1.028521 -105.383187 -0.000000 0.000001 -0.000000 -0.000001 0.000002 -0.000002 7.833156 -13.782586 -6.795313 -2.689710 16.254573 67.743606 1.553574 74.574512 -1.539386 -5.113759 12.985562 4.639656 20.889983 -15.566571 -16.787572 -8.208230 -4.310781 0.268577 -0.000001 -0.000001 0.000002 9.128269 -12.650008 66.647996 -1.115884 5.239784 125.016463 -0.000001 0.000005 0.000003 0.129285 -8.309472 66.870571 -5.787758 2.968314 121.743450 0.000003 -0.000002 0.000001 -6.024589 -0.258354 69.615487 -8.192073 -4.659876 114.564443 -0.000002 -0.000000 0.000000 -14.471979 -2.795431 62.649671 -6.361326 -2.984398 115.428435 -0.000002 -0.000006 -0.000003 0.000002 -0.000001 0.000000 0.000000 0.000001 -0.000000 0.000000 0.000001 -0.000000 0.000000 0.000001 -0.000000 0.000000 0.000001 -0.000000 0.000000 0.000001 -0.000000 -0.000003 0.000001 -0.000000 0.000000 0.000001 -0.000000 0.000000 0.000001 -0.000000 -0.000003 0.000001 -0.000000 0.000001 0.000002 -0.000000 0.000001 0.000002 -0.000000 -0.000000 0.000000 -0.000000 
-0.157732 77.885849 -0.578362 0.019683 10.765873 -2.452258 0.000000 -0.000000 -0.000000 -1.668704 -2.889260 12.840621 33.427287 0.424915 -1.112611 -22.786971 -0.235534 -9.825205 -0.000000 -0.000001 0.000000 -0.000000 -0.000001 0.000000 -0.000000 0.000000 -0.000001 -31.590311 -4.006011 -7.006315 26.976824 0.257578 1.095860 6.056368 -12.886876 5.373055 0.000000 -0.000001 -0.000000 0.000000 -0.000001 -0.000000 0.000000 0.000000 -0.000000 6.074027 0.651129 0.919796 12.136994 1.345492 1.855693 12.136993 1.345491 1.855691 -15.632413 -7.948213 -1.627336 -17.879451 -5.895173 0.151041 0.000000 0.000000 -0.000000 0.000000 0.000000 -0.000000 0.000000 0.000000 -0.000000 2.652788 -0.924634 9.262584 7.140672 2.722998 -78.188051 4.188394 -69.705878 3.928993 9.986140 -22.500455 -1.691694 1.094415 9.692889 16.924121 6.617405 15.968410 -9.748845 0.000002 -0.000003 -0.000000 7.419844 13.839450 -81.378658 2.093352 -4.239784 -115.962528 -0.000000 0.000002 0.000000 -1.251463 8.686801 -82.842108 -4.388378 -2.513009 -117.704267 -0.000000 0.000002 0.000002 -6.773467 -1.906342 -85.805918 -10.279428 2.611239 -104.549719 -0.000000 0.000003 -0.000001 -14.196122 -1.498321 -78.843421 -11.721831 -1.028531 -105.383200 0.000002 0.000001 -0.000000 -0.000000 0.000001 0.000000 7.443788 -12.837700 -5.737642 -2.160700 15.085716 67.355016 1.438500 75.676331 -1.429764 -3.541711 12.343693 1.865580 20.889982 -15.566563 -16.787568 -8.208231 -4.310789 0.268583 -0.000003 0.000001 0.000002 9.128260 -12.650014 66.647989 -1.115859 5.239782 125.016463 -0.000002 -0.000002 0.000002 0.129290 -8.309476 66.870571 -5.787758 2.968306 121.743436 0.000002 0.000004 0.000000 -6.024592 -0.258352 69.615494 -8.192071 -4.659870 114.564436 0.000000 -0.000001 0.000002 -14.471977 -2.795430 62.649664 -6.361322 -2.984406 115.428407 -0.000001 0.000001 0.000000 0.000003 -0.000003 -0.000001 0.000003 -0.000001 0.000000 0.000003 -0.000001 0.000000 0.000003 -0.000001 0.000000 0.000003 -0.000001 0.000000 0.000003 -0.000001 -0.000000 -0.000000 -0.000001 -0.000000 0.000003 -0.000001 0.000000 0.000003 -0.000001 -0.000000 -0.000000 -0.000001 -0.000000 0.000002 0.000001 -0.000000 0.000002 0.000001 -0.000000 0.000000 -0.000000 -0.000000 
-0.140030 77.873695 -0.648253 0.964163 10.489444 -2.217289 0.000000 0.000000 -0.000000 -2.660121 -2.929954 12.268180 33.391705 0.419597 -1.111742 -22.662590 0.078778 -9.706610 -0.000000 0.000000 0.000000 -0.000000 0.000000 0.000000 0.000001 0.000000 -0.000000 -32.713772 -3.245263 -7.193667 27.035316 0.248650 1.097420 6.234440 -13.170530 5.512351 0.000000 0.000000 0.000000 0.000000 0.000000 0.000000 0.000000 -0.000000 0.000001 5.860109 0.566756 0.863786 11.710872 1.170498 1.763080 11.710873 1.170500 1.763081 -15.901109 -7.883624 -1.838461 -17.731917 -6.175421 0.370323 -0.000000 0.000000 0.000000 -0.000000 0.000000 0.000000 -0.000000 0.000000 0.000000 2.458131 -1.954451 7.603916 10.374490 4.076317 -76.834533 3.808697 -71.066233 3.602960 11.783791 -22.041143 0.249226 1.094414 9.692899 16.924121 6.617397 15.968383 -9.748858 0.000004 -0.000004 0.000001 7.419841 13.839457 -81.378658 2.093342 -4.239791 -115.962583 -0.000001 -0.000002 -0.000006 -1.251467 8.686810 -82.842128 -4.388380 -2.513007 -117.704240 0.000001 0.000001 -0.000003 -6.773476 -1.906332 -85.805945 -10.279424 2.611252 -104.549685 0.000002 -0.000002 -0.000004 -14.196127 -1.498333 -78.843421 -11.721826 -1.028513 -105.383207 0.000002 0.000001 0.000002 0.000001 0.000001 0.000002 7.061385 -11.936318 -4.744730 -1.699207 13.978589 67.072512 1.301485 76.659919 -1.296647 -1.944544 11.872090 -0.856781 20.889990 -15.566559 -16.787560 -8.208222 -4.310780 0.268579 -0.000003 -0.000000 -0.000000 9.128269 -12.650012 66.647989 -1.115868 5.239779 125.016436 -0.000003 0.000002 0.000002 0.129293 -8.309471 66.870564 -5.787758 2.968312 121.743436 0.000005 0.000005 0.000001 -6.024587 -0.258352 69.615494 -8.192074 -4.659882 114.564450 -0.000000 0.000003 0.000004 -14.471979 -2.795428 62.649664 -6.361308 -2.984416 115.428435 -0.000001 -0.000001 -0.000003 0.000001 0.000002 -0.000001 0.000001 -0.000000 0.000000 0.000001 -0.000000 0.000000 0.000001 -0.000000 0.000000 0.000001 -0.000000 0.000000 0.000001 -0.000000 -0.000000 -0.000001 -0.000000 0.000000 0.000001 -0.000000 0.000000 0.000001 -0.000000 -0.000000 -0.000001 -0.000000 0.000000 0.000001 0.000001 -0.000000 0.000001 0.000001 -0.000000 0.000000 0.000000 -0.000000 
